<svg xmlns="http://www.w3.org/2000/svg" width="112.5" height="87.5" viewBox="0 0 112.5 87.5"><path d="M112.5,42.188v3.125A4.687,4.687,0,0,1,107.813,50H106.25l-5.1,35.7a9.375,9.375,0,0,1-9.281,8.049H20.631A9.375,9.375,0,0,1,11.35,85.7L6.25,50H4.688A4.687,4.687,0,0,1,0,45.313V42.188A4.687,4.687,0,0,1,4.688,37.5H17.84L38.7,8.824A6.25,6.25,0,0,1,48.8,16.176L33.3,37.5H79.2L63.7,16.176A6.25,6.25,0,0,1,73.8,8.824L94.66,37.5h13.153A4.687,4.687,0,0,1,112.5,42.188ZM60.938,76.563V54.688a4.688,4.688,0,0,0-9.375,0V76.563a4.688,4.688,0,0,0,9.375,0Zm21.875,0V54.688a4.688,4.688,0,0,0-9.375,0V76.563a4.688,4.688,0,0,0,9.375,0Zm-43.75,0V54.688a4.688,4.688,0,0,0-9.375,0V76.563a4.688,4.688,0,0,0,9.375,0Z" transform="translate(0 -6.25)"/></svg>