<?xml version="1.0" encoding="utf-8"?>
<!-- Generator: Adobe Illustrator 26.3.1, SVG Export Plug-In . SVG Version: 6.00 Build 0)  -->
<svg version="1.1" id="Capa_1" xmlns="http://www.w3.org/2000/svg" xmlns:xlink="http://www.w3.org/1999/xlink" x="0px" y="0px"
	 viewBox="0 0 549.4 434.8" style="enable-background:new 0 0 549.4 434.8;" xml:space="preserve">
<path d="M541.9,275.9h-19.4c4-5.7,6.3-12.6,6.3-20v-1.8c0.8,0.3,1.6,0.5,2.5,0.8c4.4,1.2,8.9,0.3,12.5-2.5c3.6-2.7,5.6-6.9,5.6-11.3
	c0-16.6-8.1-31.2-20.6-40.3c-0.5-32.5-7.3-62-20.1-87.6C496,87.9,477.5,66.3,453.5,49c-44.3-32-106.1-49-178.8-49
	S140.2,16.9,95.9,49C72,66.3,53.4,87.9,40.7,113.1c-12.9,25.6-19.6,55.1-20.1,87.6C8.1,209.8,0,224.5,0,241c0,4.5,2,8.6,5.6,11.3
	c3.6,2.7,8.1,3.6,12.5,2.5c1.5-0.4,2.9-0.9,4.2-1.4v2.4c0,7.4,2.3,14.3,6.3,20H7.5c-4.1,0-7.5,3.4-7.5,7.5V316
	c0,4.1,3.4,7.5,7.5,7.5h13.1v36v40.5c0,19.1,15.6,34.7,34.7,34.7h438.9c19.1,0,34.7-15.6,34.7-34.7v-40.5v-36h13.1
	c4.1,0,7.5-3.4,7.5-7.5v-32.6C549.4,279.2,546.1,275.9,541.9,275.9z M15,240.1c0.5-18.8,15.9-33.9,34.8-33.9h389.3
	c4.1,0,7.5-3.4,7.5-7.5s-3.4-7.5-7.5-7.5H49.8c-4.8,0-9.5,0.7-14,2C41.5,81.4,129.9,15,274.7,15s233.2,66.4,238.9,178.2
	c-4.4-1.3-9.1-2-14-2c-4.1,0-7.5,3.4-7.5,7.5s3.4,7.5,7.5,7.5c18.9,0,34.3,15.1,34.8,33.9c-3.9-1.2-6.8-3.5-10.1-6.1
	c-5.9-4.6-13.2-10.4-26.9-10.4c-13.7,0-21,5.8-26.9,10.4c-5.3,4.2-9.1,7.2-17.6,7.2c-8.5,0-12.3-3-17.6-7.2
	c-5.9-4.6-13.2-10.4-26.9-10.4c-13.7,0-21,5.8-26.9,10.4c-5.3,4.2-9.1,7.2-17.6,7.2c-8.5,0-12.3-3-17.6-7.2
	c-5.9-4.6-13.2-10.4-26.9-10.4s-21,5.8-26.9,10.4c-5.3,4.2-9.1,7.2-17.6,7.2c-8.5,0-12.3-3-17.6-7.2c-5.9-4.6-13.2-10.4-26.9-10.4
	s-21.1,5.8-26.9,10.4c-5.3,4.2-9.1,7.2-17.6,7.2c-8.5,0-12.3-3-17.6-7.2c-5.9-4.6-13.2-10.4-26.9-10.4c-13.7,0-21.1,5.8-26.9,10.4
	c-5.3,4.2-9.1,7.2-17.6,7.2c-8.5,0-12.3-3-17.6-7.2c-5.9-4.6-13.2-10.4-26.9-10.4S31,229.3,25.1,234C21.8,236.6,18.9,238.9,15,240.1
	z M37.3,255.9v-12.3c4-3,7.8-5,14.8-5c8.5,0,12.3,3,17.6,7.2c5.9,4.6,13.2,10.4,26.9,10.4c13.7,0,21.1-5.8,26.9-10.4
	c5.3-4.2,9.1-7.2,17.6-7.2s12.3,3,17.6,7.2c5.9,4.6,13.2,10.4,26.9,10.4s21.1-5.8,26.9-10.4c5.3-4.2,9.1-7.2,17.6-7.2
	s12.3,3,17.6,7.2c5.9,4.6,13.2,10.4,26.9,10.4c13.7,0,21-5.8,26.9-10.4c5.3-4.2,9.1-7.2,17.6-7.2c8.5,0,12.3,3,17.6,7.2
	c5.9,4.6,13.2,10.4,26.9,10.4c13.7,0,21-5.8,26.9-10.4c5.3-4.2,9.1-7.2,17.6-7.2c8.5,0,12.3,3,17.6,7.2c5.9,4.6,13.2,10.4,26.9,10.4
	c13.7,0,21-5.8,26.9-10.4c5.3-4.2,9.1-7.2,17.6-7.2c7.9,0,11.8,2.6,16.5,6.3v11c0,11-9,20-20,20H57.3
	C46.2,275.9,37.3,266.9,37.3,255.9z M267.2,352H35.6v-28.5h231.7V352z M513.9,400.1c0,10.9-8.8,19.7-19.7,19.7H55.3
	c-10.9,0-19.7-8.8-19.7-19.7v-33h239.2h239.2V400.1z M513.9,352H282.2v-28.5h231.7V352z M534.4,308.5h-13.1H274.7H28.1H15v-17.6
	h42.3h436.6h40.6L534.4,308.5L534.4,308.5z M143.5,98.2c0,4.1-3.4,7.5-7.5,7.5h-26.2c-4.1,0-7.5-3.4-7.5-7.5s3.4-7.5,7.5-7.5H136
	C140.1,90.7,143.5,94.1,143.5,98.2z M204.2,98.2c0,4.1-3.4,7.5-7.5,7.5h-26.2c-4.1,0-7.5-3.4-7.5-7.5s3.4-7.5,7.5-7.5h26.2
	C200.9,90.7,204.2,94.1,204.2,98.2z M265,98.2c0,4.1-3.4,7.5-7.5,7.5h-26.2c-4.1,0-7.5-3.4-7.5-7.5s3.4-7.5,7.5-7.5h26.2
	C261.6,90.7,265,94.1,265,98.2z M325.7,98.2c0,4.1-3.4,7.5-7.5,7.5H292c-4.1,0-7.5-3.4-7.5-7.5s3.4-7.5,7.5-7.5h26.2
	C322.3,90.7,325.7,94.1,325.7,98.2z M386.4,98.2c0,4.1-3.4,7.5-7.5,7.5h-26.2c-4.1,0-7.5-3.4-7.5-7.5s3.4-7.5,7.5-7.5h26.2
	C383.1,90.7,386.4,94.1,386.4,98.2z M231.2,64.6H205c-4.1,0-7.5-3.4-7.5-7.5s3.4-7.5,7.5-7.5h26.2c4.1,0,7.5,3.4,7.5,7.5
	S235.4,64.6,231.2,64.6z M292,64.6h-26.2c-4.1,0-7.5-3.4-7.5-7.5s3.4-7.5,7.5-7.5H292c4.1,0,7.5,3.4,7.5,7.5S296.1,64.6,292,64.6z
	 M352.7,64.6h-26.2c-4.1,0-7.5-3.4-7.5-7.5s3.4-7.5,7.5-7.5h26.2c4.1,0,7.5,3.4,7.5,7.5S356.8,64.6,352.7,64.6z M447.2,98.2
	c0,4.1-3.4,7.5-7.5,7.5h-26.2c-4.1,0-7.5-3.4-7.5-7.5s3.4-7.5,7.5-7.5h26.2C443.8,90.7,447.2,94.1,447.2,98.2z"/>
</svg>
