<?xml version="1.0" encoding="utf-8"?>
<!-- Generator: Adobe Illustrator 26.3.1, SVG Export Plug-In . SVG Version: 6.00 Build 0)  -->
<svg version="1.1" id="Layer_1" xmlns="http://www.w3.org/2000/svg" xmlns:xlink="http://www.w3.org/1999/xlink" x="0px" y="0px"
	 viewBox="0 0 457.9 512" style="enable-background:new 0 0 457.9 512;" xml:space="preserve">
<g>
	<g>
		<g>
			<path d="M425,0H134v15.2h291c9.8,0,17.7,8,17.7,17.7v363.2H15.2V33c0-9.8,8-17.7,17.7-17.7h80.8V0H33C14.8,0,0,14.8,0,33v363.2
				v79.4v0.1h27V512h403.9v-36.4h27v-0.1v-79.4V33C457.9,14.8,443.2,0,425,0z M442.7,460.3h-27v0.1H99.8v15.2h315.9v21.2H42.2v-21.2
				h39.5v-15.2H42.2v-0.1h-27v-49h427.5V460.3z"/>
			<rect x="412.3" y="98.9" width="15.2" height="79.8"/>
			<rect x="412.3" y="198.9" width="15.2" height="184.6"/>
			<polygon points="78.3,130.8 78.3,115.6 40.6,115.6 40.6,295.8 78.3,295.6 78.2,280.4 55.8,280.5 55.8,130.8 			"/>
			<polygon points="149.6,213.3 210.6,213.3 190.1,233.7 162.4,233.7 162.4,249 185.7,248.9 185.7,272.2 200.9,272.2 200.9,244.5 
				221.4,224 221.4,285 236.6,285 236.6,224 257,244.5 257,272.2 272.2,272.2 272.2,249 295.5,248.9 295.5,233.7 267.8,233.7 
				247.3,213.3 308.3,213.3 308.3,198.1 247.3,198.1 267.8,177.6 295.5,177.6 295.5,162.4 272.2,162.4 272.2,139.1 257,139.1 
				257,166.9 236.6,187.3 236.6,126.4 221.4,126.4 221.4,187.3 200.9,166.9 200.9,139.1 185.7,139.1 185.7,162.4 162.4,162.4 
				162.4,177.6 190.1,177.6 210.6,198.1 149.6,198.1 			"/>
			<rect x="81.5" y="422.9" width="15.2" height="25.9"/>
			<rect x="111.9" y="422.9" width="15.2" height="25.9"/>
			<rect x="142.3" y="422.9" width="15.2" height="25.9"/>
			<rect x="300.4" y="422.9" width="15.2" height="25.9"/>
			<rect x="330.8" y="422.9" width="15.2" height="25.9"/>
			<rect x="361.2" y="422.9" width="15.2" height="25.9"/>
		</g>
	</g>
</g>
</svg>
