<?xml version="1.0" encoding="utf-8"?>
<!-- Generator: Adobe Illustrator 26.3.1, SVG Export Plug-In . SVG Version: 6.00 Build 0)  -->
<svg version="1.1" id="Layer_1" xmlns="http://www.w3.org/2000/svg" xmlns:xlink="http://www.w3.org/1999/xlink" x="0px" y="0px"
	 viewBox="0 0 512 512" style="enable-background:new 0 0 512 512;" xml:space="preserve">
<g>
	<g>
		<g>
			<path d="M384,238.9c-14.1,0-25.6,11.5-25.6,25.6c0,4.7,3.8,8.5,8.5,8.5s8.5-3.8,8.5-8.5c0-4.7,3.8-8.5,8.5-8.5s8.5,3.8,8.5,8.5
				c0,4.7,3.8,8.5,8.5,8.5s8.5-3.8,8.5-8.5C409.6,250.4,398.1,238.9,384,238.9z"/>
			<path d="M119.5,281.6v34.1c0,4.7,3.8,8.5,8.5,8.5c4.7,0,8.5-3.8,8.5-8.5v-34.1c0-4.7-3.8-8.5-8.5-8.5S119.5,276.9,119.5,281.6z"
				/>
			<path d="M160.9,324.2c0.4,0.1,0.8,0.1,1.2,0.1c4.2,0,7.8-3.1,8.4-7.3l8.5-59.7c0.2-1.7,0-3.5-0.8-5c-1.1-2.2-12-21.8-50.3-21.8
				S78.8,250,77.7,252.2c-0.8,1.6-1.1,3.3-0.8,5l8.5,59.7c0.7,4.7,5,7.9,9.7,7.2c4.7-0.7,7.9-5,7.2-9.7l-8-56.3
				c3.2-3.5,12.3-10.7,33.7-10.7c21.5,0,30.7,7.3,33.7,10.7l-8.1,56.4C153,319.2,156.3,323.5,160.9,324.2z"/>
			<path d="M76.8,477.9H34.1V226.1c0-4.7-3.8-8.5-8.5-8.5s-8.5,3.8-8.5,8.5v260.3c0,4.7,3.8,8.5,8.5,8.5h42.7v8.5
				c0,4.7,3.8,8.5,8.5,8.5s8.5-3.8,8.5-8.5v-17.1C85.3,481.7,81.5,477.9,76.8,477.9z"/>
			<path d="M401.1,477.9H110.9c-4.7,0-8.5,3.8-8.5,8.5s3.8,8.5,8.5,8.5h290.1c4.7,0,8.5-3.8,8.5-8.5S405.8,477.9,401.1,477.9z"/>
			<path d="M486.4,341.3H59.7c-4.7,0-8.5,3.8-8.5,8.5s3.8,8.5,8.5,8.5h418.1v119.5h-42.7c-4.7,0-8.5,3.8-8.5,8.5v17.1
				c0,4.7,3.8,8.5,8.5,8.5s8.5-3.8,8.5-8.5v-8.5h42.7c4.7,0,8.5-3.8,8.5-8.5V349.9C494.9,345.2,491.1,341.3,486.4,341.3z"/>
			<path d="M324.3,315.7c0,4.7,3.8,8.5,8.5,8.5s8.5-3.8,8.5-8.5c0-4.7,3.8-8.5,8.5-8.5s8.5,3.8,8.5,8.5c0,4.7,3.8,8.5,8.5,8.5
				s8.5-3.8,8.5-8.5c0-14.1-11.5-25.6-25.6-25.6S324.3,301.6,324.3,315.7z"/>
			<path d="M486.4,217.6c-4.7,0-8.5,3.8-8.5,8.5v89.6c0,4.7,3.8,8.5,8.5,8.5s8.5-3.8,8.5-8.5v-89.6
				C494.9,221.4,491.1,217.6,486.4,217.6z"/>
			<path d="M469.3,0H42.7C19.1,0,0,19.1,0,42.7v152.7c0,2.6,1.2,5,3.1,6.6c2,1.6,4.6,2.3,7.1,1.7c13.6-2.8,25.1-10.9,32.4-21.9
				c9.2,13.8,24.9,22.9,42.7,22.9c17.8,0,33.5-9.1,42.7-22.9c9.2,13.8,24.9,22.9,42.7,22.9s33.5-9.1,42.7-22.9
				c9.2,13.8,24.9,22.9,42.7,22.9c17.8,0,33.5-9.1,42.7-22.9c9.2,13.8,24.9,22.9,42.7,22.9c17.8,0,33.5-9.1,42.7-22.9
				c9.2,13.8,24.9,22.9,42.7,22.9c17.8,0,33.5-9.1,42.7-22.9c7.3,11,18.8,19.1,32.4,21.9c2.5,0.5,5.1-0.1,7.1-1.7
				c2-1.6,3.1-4,3.1-6.6V42.7C512,19.1,492.9,0,469.3,0z M494.9,183.2c-10.3-6-17.1-17.1-17.1-29.6V42.7c0-4.7-3.8-8.5-8.5-8.5
				s-8.5,3.8-8.5,8.5v110.9c0,18.8-15.3,34.1-34.1,34.1s-34.1-15.3-34.1-34.1V42.7c0-4.7-3.8-8.5-8.5-8.5s-8.5,3.8-8.5,8.5v110.9
				c0,18.8-15.3,34.1-34.1,34.1c-18.8,0-34.1-15.3-34.1-34.1V42.7c0-4.7-3.8-8.5-8.5-8.5s-8.5,3.8-8.5,8.5v110.9
				c0,18.8-15.3,34.1-34.1,34.1c-18.8,0-34.1-15.3-34.1-34.1V42.7c0-4.7-3.8-8.5-8.5-8.5s-8.5,3.8-8.5,8.5v110.9
				c0,18.8-15.3,34.1-34.1,34.1s-34.1-15.3-34.1-34.1V42.7c0-4.7-3.8-8.5-8.5-8.5s-8.5,3.8-8.5,8.5v110.9
				c0,18.8-15.3,34.1-34.1,34.1c-18.8,0-34.1-15.3-34.1-34.1V42.7c0-4.7-3.8-8.5-8.5-8.5s-8.5,3.8-8.5,8.5v110.9
				c0,12.4-6.8,23.6-17.1,29.6V42.7c0-14.1,11.5-25.6,25.6-25.6h426.7c14.1,0,25.6,11.5,25.6,25.6L494.9,183.2L494.9,183.2z"/>
			<path d="M256,315.7c0,4.7,3.8,8.5,8.5,8.5s8.5-3.8,8.5-8.5c0-4.7,3.8-8.5,8.5-8.5s8.5,3.8,8.5,8.5c0,4.7,3.8,8.5,8.5,8.5
				s8.5-3.8,8.5-8.5c0-14.1-11.5-25.6-25.6-25.6S256,301.6,256,315.7z"/>
			<path d="M315.7,238.9c-14.1,0-25.6,11.5-25.6,25.6c0,4.7,3.8,8.5,8.5,8.5s8.5-3.8,8.5-8.5c0-4.7,3.8-8.5,8.5-8.5s8.5,3.8,8.5,8.5
				c0,4.7,3.8,8.5,8.5,8.5s8.5-3.8,8.5-8.5C341.3,250.4,329.8,238.9,315.7,238.9z"/>
			<path d="M392.5,315.7c0,4.7,3.8,8.5,8.5,8.5s8.5-3.8,8.5-8.5c0-4.7,3.8-8.5,8.5-8.5s8.5,3.8,8.5,8.5c0,4.7,3.8,8.5,8.5,8.5
				s8.5-3.8,8.5-8.5c0-14.1-11.5-25.6-25.6-25.6S392.5,301.6,392.5,315.7z"/>
		</g>
	</g>
</g>
</svg>
