<?xml version="1.0" encoding="utf-8"?>
<!-- Generator: Adobe Illustrator 26.3.1, SVG Export Plug-In . SVG Version: 6.00 Build 0)  -->
<svg version="1.1" id="Layer_1" xmlns="http://www.w3.org/2000/svg" xmlns:xlink="http://www.w3.org/1999/xlink" x="0px" y="0px"
	 viewBox="0 0 512 477.8" style="enable-background:new 0 0 512 477.8;" xml:space="preserve">
<g>
	<g>
		<path d="M495.4,153.9h-119L294.9,12.6c-3.4-5.8-8.8-10-15.3-11.7c-6.5-1.7-13.2-0.8-19.1,2.5c-1.7,1-3.2,2.1-4.5,3.4
			c-1.4-1.3-2.9-2.4-4.5-3.4c-5.8-3.4-12.6-4.2-19.1-2.5c-6.5,1.7-11.9,5.9-15.3,11.7l-81.6,141.4h-119c-9.1,0-16.6,7.4-16.6,16.6
			v42.8c0,9.1,7.4,16.6,16.6,16.6h1.1l14.9,216.6c1.2,17.6,16,31.4,33.6,31.4h379.7c17.6,0,32.4-13.8,33.6-31.4l14.9-216.6h1.1
			c9.1,0,16.6-7.4,16.6-16.6v-42.8C512,161.4,504.6,153.9,495.4,153.9z M264.3,22.8c0.6-2.3,2.1-4.3,4.2-5.5c1.4-0.8,3-1.2,4.5-1.2
			c0.8,0,1.6,0.1,2.4,0.3c2.3,0.6,4.3,2.1,5.5,4.2l85.5,148.1c2.5,4.3,1,9.9-3.3,12.4c-2.1,1.2-4.6,1.5-6.9,0.9
			c-2.3-0.6-4.3-2.1-5.5-4.2L265.2,29.7C264,27.6,263.7,25.1,264.3,22.8z M256,45.7l62.5,108.2H193.5L256,45.7z M145.5,168.7
			L231,20.6c1.2-2.1,3.2-3.6,5.5-4.2c2.3-0.6,4.8-0.3,6.9,0.9c2.1,1.2,3.6,3.2,4.2,5.5c0.6,2.3,0.3,4.8-0.9,6.9l-85.5,148.1
			c-1.2,2.1-3.2,3.6-5.5,4.2c-2.3,0.6-4.8,0.3-6.9-0.9C144.5,178.6,143,173,145.5,168.7z M496,213.3c0,0.3-0.2,0.5-0.5,0.5h-34.2
			c-4.4,0-8,3.6-8,8s3.6,8,8,8h17.1l-14.9,215.5c-0.6,9.2-8.4,16.4-17.6,16.4H66.2c-9.2,0-17-7.2-17.6-16.4L33.7,229.8H427
			c4.4,0,8-3.6,8-8s-3.6-8-8-8H16.6c-0.3,0-0.5-0.2-0.5-0.5v-42.8c0-0.3,0.2-0.5,0.5-0.5h111.9c-1.3,9.8,3.3,19.8,12.3,25
			c3.9,2.2,8.2,3.4,12.5,3.4c2.2,0,4.4-0.3,6.5-0.9c6.5-1.7,11.9-5.9,15.3-11.7l9.1-15.8h143.4l9.1,15.8c3.4,5.8,8.8,10,15.3,11.7
			c2.2,0.6,4.4,0.9,6.5,0.9c4.4,0,8.6-1.1,12.5-3.4c9-5.2,13.6-15.3,12.3-25h111.9c0.3,0,0.5,0.2,0.5,0.5L496,213.3L496,213.3z"/>
	</g>
</g>
<g>
	<g>
		<path d="M273.1,307.8c-4.4,0-8,3.6-8,8v94.1c0,5-4.1,9.1-9.1,9.1s-9.1-4.1-9.1-9.1V281.7c0-5,4.1-9.1,9.1-9.1c5,0,9.1,4.1,9.1,9.1
			c0,4.4,3.6,8,8,8s8-3.6,8-8c0-13.9-11.3-25.1-25.1-25.1s-25.1,11.3-25.1,25.1v128.3c0,13.9,11.3,25.1,25.1,25.1
			s25.1-11.3,25.1-25.1v-94.1C281.1,311.4,277.5,307.8,273.1,307.8z"/>
	</g>
</g>
<g>
	<g>
		<path d="M341.5,307.8c-4.4,0-8,3.6-8,8v94.1c0,5-4.1,9.1-9.1,9.1s-9.1-4.1-9.1-9.1V281.7c0-5,4.1-9.1,9.1-9.1s9.1,4.1,9.1,9.1
			c0,4.4,3.6,8,8,8s8-3.6,8-8c0-13.9-11.3-25.1-25.1-25.1c-13.9,0-25.1,11.3-25.1,25.1v128.3c0,13.9,11.3,25.1,25.1,25.1
			c13.9,0,25.1-11.3,25.1-25.1v-94.1C349.5,311.4,345.9,307.8,341.5,307.8z"/>
	</g>
</g>
<g>
	<g>
		<path d="M409.9,307.8c-4.4,0-8,3.6-8,8v94.1c0,5-4.1,9.1-9.1,9.1s-9.1-4.1-9.1-9.1V281.7c0-5,4.1-9.1,9.1-9.1s9.1,4.1,9.1,9.1
			c0,4.4,3.6,8,8,8c4.4,0,8-3.6,8-8c0-13.9-11.3-25.1-25.1-25.1c-13.9,0-25.1,11.3-25.1,25.1v128.3c0,13.9,11.3,25.1,25.1,25.1
			c13.9,0,25.1-11.3,25.1-25.1v-94.1C417.9,311.4,414.3,307.8,409.9,307.8z"/>
	</g>
</g>
<g>
	<g>
		<path d="M136.3,307.8c-4.4,0-8,3.6-8,8v94.1c0,5-4.1,9.1-9.1,9.1s-9.1-4.1-9.1-9.1V281.7c0-5,4.1-9.1,9.1-9.1s9.1,4.1,9.1,9.1
			c0,4.4,3.6,8,8,8s8-3.6,8-8c0-13.9-11.3-25.1-25.1-25.1s-25.1,11.3-25.1,25.1v128.3c0,13.9,11.3,25.1,25.1,25.1
			s25.1-11.3,25.1-25.1v-94.1C144.3,311.4,140.7,307.8,136.3,307.8z"/>
	</g>
</g>
<g>
	<g>
		<path d="M204.7,307.8c-4.4,0-8,3.6-8,8v94.1c0,5-4.1,9.1-9.1,9.1s-9.1-4.1-9.1-9.1V281.7c0-5,4.1-9.1,9.1-9.1s9.1,4.1,9.1,9.1
			c0,4.4,3.6,8,8,8s8-3.6,8-8c0-13.9-11.3-25.1-25.1-25.1s-25.1,11.3-25.1,25.1v128.3c0,13.9,11.3,25.1,25.1,25.1
			s25.1-11.3,25.1-25.1v-94.1C212.7,311.4,209.1,307.8,204.7,307.8z"/>
	</g>
</g>
</svg>
