<?xml version="1.0" encoding="utf-8"?>
<!-- Generator: Adobe Illustrator 26.3.1, SVG Export Plug-In . SVG Version: 6.00 Build 0)  -->
<svg version="1.1" id="Layer_1" xmlns="http://www.w3.org/2000/svg" xmlns:xlink="http://www.w3.org/1999/xlink" x="0px" y="0px"
	 viewBox="0 0 375.8 512" style="enable-background:new 0 0 375.8 512;" xml:space="preserve">
<g>
	<g>
		<circle cx="51.7" cy="334.3" r="8.2"/>
	</g>
</g>
<g>
	<g>
		<circle cx="84.4" cy="366.9" r="8.2"/>
	</g>
</g>
<g>
	<g>
		<path d="M163.4,453.2V171.3c0.3,0.1,0.5,0.1,0.8,0.2c2.4,0.6,5,0.1,7-1.5c2-1.5,3.1-3.9,3.1-6.4l0-68.3
			c0-22.5-18.3-40.9-40.9-40.9H95.3V8.2c0-4.5-3.7-8.2-8.2-8.2S79,3.7,79,8.2v46.3H40.9C18.3,54.5,0,72.8,0,95.3l0,68.3
			c0,2.5,1.2,4.9,3.1,6.4c2,1.5,4.6,2.1,7,1.5c13.4-3.3,26.1-10.2,36.7-19.7c8.1,16.4,21,29.9,36.6,37.9c1.2,0.6,2.5,0.9,3.8,0.9
			c1.3,0,2.6-0.3,3.8-0.9c15.6-8.1,28.5-21.5,36.6-37.9c5.9,5.4,12.5,9.9,19.6,13.4v295.1c0,4.5,3.7,8.2,8.2,8.2
			c7.5,0,13.6,6.1,13.6,13.6s-6.1,13.6-13.6,13.6c-70.6,0-128-57.4-128-128v-175c0-4.5-3.7-8.2-8.2-8.2s-8.2,3.7-8.2,8.2v175
			c0,79.6,64.8,144.3,144.3,144.3c16.5,0,30-13.4,30-30C185.2,468.4,176,456.8,163.4,453.2z M158,152.2c-10.2-4.4-19.5-11.4-27-20.3
			c-1.9-2.3-4.9-3.4-7.8-2.8c-2.9,0.6-5.3,2.7-6.2,5.5c-5.3,16.3-16.1,30.1-29.8,38.5c-13.7-8.4-24.5-22.2-29.8-38.5
			c-0.9-2.8-3.3-4.9-6.2-5.5c-0.5-0.1-1-0.1-1.5-0.1c-2.4,0-4.7,1.1-6.3,3c-7.4,8.9-16.8,15.9-27,20.3l0-56.9
			c0-13.5,11-24.5,24.5-24.5h92.6c13.5,0,24.5,11,24.5,24.5L158,152.2z"/>
	</g>
</g>
<g>
	<g>
		<path d="M372.7,342c-2-1.5-4.6-2.1-7-1.5c-0.3,0.1-0.5,0.1-0.8,0.2V144.3C364.9,64.8,300.2,0,220.6,0c-16.5,0-30,13.4-30,30
			c0,13.7,9.2,25.3,21.8,28.8v260.4c0,4.5,3.7,8.2,8.2,8.2s8.2-3.7,8.2-8.2V51.7c0-4.5-3.7-8.2-8.2-8.2c-7.5,0-13.6-6.1-13.6-13.6
			s6.1-13.6,13.6-13.6c70.6,0,128,57.4,128,128v202.5c-7,3.5-13.6,8-19.6,13.4c-8.1-16.4-21-29.9-36.6-37.9c-2.4-1.2-5.2-1.2-7.5,0
			c-15.6,8.1-28.5,21.5-36.6,37.9c-10.6-9.5-23.3-16.4-36.7-19.7c-2.4-0.6-5-0.1-7,1.5s-3.1,3.9-3.1,6.4l0,68.3
			c0,22.5,18.3,40.9,40.9,40.9h38.1v46.3c0,4.5,3.7,8.2,8.2,8.2s8.2-3.7,8.2-8.2v-46.3H335c22.5,0,40.9-18.3,40.9-40.9l0-68.3
			C375.8,345.9,374.7,343.5,372.7,342z M359.5,416.7c0,13.5-11,24.5-24.5,24.5h-92.6c-13.5,0-24.5-11-24.5-24.5l0-56.9
			c10.2,4.4,19.5,11.4,27,20.3c1.9,2.3,4.9,3.4,7.8,2.8c2.9-0.6,5.3-2.7,6.2-5.5c5.3-16.3,16.1-30.1,29.8-38.5
			c13.7,8.4,24.5,22.2,29.8,38.5c0.9,2.8,3.3,4.9,6.2,5.5c2.9,0.6,5.9-0.5,7.8-2.8c7.4-8.9,16.8-15.9,27-20.3L359.5,416.7z"/>
	</g>
</g>
<g>
	<g>
		<circle cx="313.2" cy="144.3" r="8.2"/>
	</g>
</g>
</svg>
